HIERARCHY
ROOT SimulationBone
{
	OFFSET 0.000000 0.000000 0.000000
	CHANNELS 6 Xposition Yposition Zposition Zrotation Yrotation Xrotation 
	JOINT Hips
	{
		OFFSET 0.000000 0.000000 0.000000
		CHANNELS 6 Xposition Yposition Zposition Zrotation Yrotation Xrotation 
		JOINT RightUpLeg
		{
			OFFSET 0.103462 1.857827 10.548504
			CHANNELS 3 Zrotation Yrotation Xrotation
			JOINT RightLeg
			{
				OFFSET 43.500000 -0.000031 0.000000
				CHANNELS 3 Zrotation Yrotation Xrotation
				JOINT RightFoot
				{
					OFFSET 42.372192 0.000015 0.000000
					CHANNELS 3 Zrotation Yrotation Xrotation
					JOINT RightToe
					{
						OFFSET 17.300001 0.000000 -0.000009
						CHANNELS 3 Zrotation Yrotation Xrotation
						End Site
						{
							OFFSET 0.000000 0.000000 0.000000
						}
					}
				}
			}
		}
		JOINT LeftUpLeg
		{
			OFFSET 0.103456 1.857828 -10.548508
			CHANNELS 3 Zrotation Yrotation Xrotation
			JOINT LeftLeg
			{
				OFFSET 43.500046 -0.000015 0.000008
				CHANNELS 3 Zrotation Yrotation Xrotation
				JOINT LeftFoot
				{
					OFFSET 42.372261 -0.000015 0.000002
					CHANNELS 3 Zrotation Yrotation Xrotation
					JOINT LeftToe
					{
						OFFSET 17.299999 -0.000003 0.000011
						CHANNELS 3 Zrotation Yrotation Xrotation
						End Site
						{
							OFFSET 0.000000 0.000000 0.000000
						}
					}
				}
			}
		}
		JOINT Spine
		{
			OFFSET 6.901966 -2.603728 -0.000009
			CHANNELS 3 Zrotation Yrotation Xrotation
			JOINT Spine1
			{
				OFFSET 12.588099 0.000000 0.000013
				CHANNELS 3 Zrotation Yrotation Xrotation
				JOINT Spine2
				{
					OFFSET 12.343203 0.000005 -0.000004
					CHANNELS 3 Zrotation Yrotation Xrotation
					JOINT Neck
					{
						OFFSET 25.832897 -0.000004 0.000004
						CHANNELS 3 Zrotation Yrotation Xrotation
						JOINT Head
						{
							OFFSET 11.766615 0.000003 -0.000003
							CHANNELS 3 Zrotation Yrotation Xrotation
							End Site
							{
								OFFSET 0.000000 0.000000 0.000000
							}
						}
					}
					JOINT RightShoulder
					{
						OFFSET 19.745903 -1.480370 6.000102
						CHANNELS 3 Zrotation Yrotation Xrotation
						JOINT RightArm
						{
							OFFSET 11.284127 -0.000006 -0.000019
							CHANNELS 3 Zrotation Yrotation Xrotation
							JOINT RightForeArm
							{
								OFFSET 33.000042 0.000001 0.000035
								CHANNELS 3 Zrotation Yrotation Xrotation
								JOINT RightHand
								{
									OFFSET 25.200005 0.000015 0.000003
									CHANNELS 3 Zrotation Yrotation Xrotation
									End Site
									{
										OFFSET 0.000000 0.000000 0.000000
									}
								}
							}
						}
					}
					JOINT LeftShoulder
					{
						OFFSET 19.746101 -1.480375 -6.000084
						CHANNELS 3 Zrotation Yrotation Xrotation
						JOINT LeftArm
						{
							OFFSET 11.284132 -0.000016 -0.000012
							CHANNELS 3 Zrotation Yrotation Xrotation
							JOINT LeftForeArm
							{
								OFFSET 33.000092 0.000018 0.000010
								CHANNELS 3 Zrotation Yrotation Xrotation
								JOINT LeftHand
								{
									OFFSET 25.199774 0.000137 0.000425
									CHANNELS 3 Zrotation Yrotation Xrotation
									End Site
									{
										OFFSET 0.000000 0.000000 0.000000
									}
								}
							}
						}
					}
				}
			}
		}
	}
}
MOTION
Frames: 8
Frame Time: 0.033333
256.160350 0.000000 -372.379125 0.000000 237.420258 0.000000 0.894473 88.642776 2.546986 98.232435 5.056525 -175.623294 163.876701 -5.352903 176.310282 -79.949058 1.549327 -2.618111 72.864984 0.785733 -3.276664 21.454560 0.003104 0.000020 175.777801 -3.644389 175.411443 -29.897951 3.284316 4.955793 82.150811 -2.884531 3.016744 21.454553 -0.003087 0.000001 9.304911 1.271336 -0.280667 8.593882 2.559996 -0.466320 8.275466 2.557004 -0.481785 5.712605 0.536436 0.033911 -14.190106 -4.317517 1.557802 -167.109922 -73.152897 -14.634580 -12.828081 61.075244 23.363121 -38.519852 -19.012376 1.708029 6.067492 -5.469177 10.455392 -170.238790 75.957093 11.467807 -18.341483 -51.327430 -28.789333 -29.919446 11.709568 -1.015986 5.423824 2.034510 -26.288053 
253.581005 0.000000 -369.209992 0.000000 238.082183 0.000000 0.723892 89.127274 2.435284 97.957398 4.606316 -175.736987 159.093916 -4.694307 174.920899 -76.212098 0.242144 -2.491531 73.405593 1.145613 -2.030638 21.454560 0.003109 0.000017 -179.884998 -3.394304 174.596178 -26.117559 3.779787 5.681010 82.860440 -3.502756 2.581919 21.454555 -0.003093 0.000000 9.232822 1.066065 0.099710 8.456809 2.122019 0.277044 8.138485 2.123528 0.264217 4.798861 -0.957393 -0.443972 -14.580613 -3.214363 0.507506 -163.026985 -73.119613 -18.825927 -9.147629 60.740913 27.794256 -37.132631 -18.059903 1.611026 6.029399 -4.906235 9.505388 -172.697822 76.496486 8.957502 -20.066508 -50.864600 -26.183315 -33.049038 12.613721 -1.137591 5.392452 2.315339 -24.699687 
251.087329 0.000000 -365.986364 0.000000 238.732532 0.000000 0.491872 89.232422 2.348316 97.155168 4.411205 -176.155681 154.743181 -4.351895 174.477114 -69.811787 -1.516132 -2.887966 72.922139 1.333142 -2.513164 21.454562 0.003102 0.000016 -176.393447 -3.275895 174.223714 -22.809891 4.076507 6.008600 83.768896 -3.849558 2.068724 21.454553 -0.003088 0.000002 9.068633 0.922320 0.483165 8.133551 1.808463 1.029998 7.815346 1.814517 1.019061 3.638864 -3.170326 -0.810182 -14.931381 -1.981971 -0.613798 -160.743229 -72.370301 -21.180172 -4.959730 59.454700 32.725178 -35.978957 -17.504031 1.546908 6.165566 -4.706715 8.837329 -175.812908 77.346503 5.785588 -21.901883 -50.118955 -24.004760 -36.429005 13.488174 -1.270299 4.658457 2.907056 -23.727387 
248.666365 0.000000 -362.712812 0.000000 239.374846 0.000000 0.323639 89.003838 2.231904 96.578928 4.433570 -176.939028 152.125224 -4.069889 173.981201 -60.756479 -2.732072 -4.418932 73.579791 2.525894 -2.406276 21.454557 0.003114 0.000014 -172.780973 -3.357101 174.148623 -19.780016 3.991559 5.916640 84.817139 -3.874294 1.646216 21.454551 -0.003086 0.000001 8.961230 0.836667 0.836516 7.922582 1.614225 1.728408 7.604497 1.624493 1.718630 3.395957 -5.228391 -1.113748 -16.423151 -1.352362 -1.438838 -159.491529 -71.662119 -22.477478 -0.546066 58.136876 37.010767 -34.879519 -17.141120 1.497563 6.471423 -4.406315 8.639482 179.760129 78.445303 1.290910 -24.057663 -49.203832 -21.714850 -39.650785 14.313755 -1.403860 3.331456 3.779099 -23.393243 
246.311027 0.000000 -359.387714 0.000000 240.011106 0.000000 0.275757 88.472137 2.091383 96.493040 4.417602 -177.958467 151.402344 -3.958999 174.193388 -49.356272 -4.168658 -5.497804 73.398367 3.055360 -3.368014 21.454558 0.003107 0.000021 -168.850131 -3.384598 173.323973 -17.246375 3.914647 6.069826 86.053813 -4.023926 1.431307 21.454551 -0.003095 0.000000 9.054039 0.721712 1.136804 8.109611 1.362122 2.321459 7.791694 1.375974 2.313192 1.861679 -6.600085 -1.155006 -16.254834 -1.049300 -1.881465 -156.680100 -70.807608 -25.386237 1.929719 57.100006 39.518723 -32.972178 -16.641498 1.422528 6.594204 -4.407708 8.157940 176.247731 78.610710 -2.279692 -26.934972 -47.183982 -18.738938 -42.898301 15.203962 -1.549665 2.363913 4.391536 -24.442365 
244.021286 0.000000 -356.016675 0.000000 240.642495 0.000000 0.292376 87.775383 1.932977 96.276369 4.373522 -179.211506 152.071047 -3.416704 174.470639 -35.982485 -4.168770 -5.666825 71.469884 3.083050 -3.549759 21.454557 0.003113 0.000018 -165.336791 -3.221883 171.996922 -15.325088 3.929699 6.393250 87.268446 -4.260060 1.368988 21.454555 -0.003093 -0.000001 9.102665 0.622757 1.402113 8.207135 1.144683 2.844917 7.889376 1.161695 2.837957 1.085399 -7.881723 -1.107719 -16.739621 -0.898403 -2.145230 -155.973011 -70.394894 -26.122987 5.174177 56.666180 40.661021 -30.948222 -15.899531 1.332385 6.920030 -4.149122 8.588814 172.448507 79.006390 -6.132487 -29.462865 -45.340718 -15.673013 -46.242727 15.966911 -1.697257 1.686404 4.760395 -27.226988 
241.799308 0.000000 -352.606843 0.000000 241.275716 0.000000 0.410010 86.925362 1.713528 96.101864 4.160411 179.685081 152.909248 -2.557400 179.093762 -25.267330 -5.405376 -8.265158 70.818051 4.809720 -4.077541 21.454563 0.003118 0.000022 -162.084993 -2.761509 171.432721 -14.181307 3.903446 6.439877 88.477786 -4.273821 1.494889 21.454551 -0.003091 0.000000 9.119708 0.523102 1.537931 8.239582 0.935541 3.109254 7.921935 0.954156 3.103531 0.959252 -8.959681 -0.986134 -17.542812 -0.715568 -2.277044 -156.244798 -70.278992 -25.845523 9.073214 56.659585 41.514388 -28.841672 -15.424655 1.260980 6.843115 -3.799986 8.601875 167.646529 79.806246 -10.983091 -31.704519 -44.379386 -12.505462 -49.521518 16.816931 -1.855905 1.081790 5.359743 -30.211098 
239.629973 0.000000 -349.156421 0.000000 241.898998 0.000000 0.569140 86.023903 1.461359 96.186632 3.710756 178.442453 153.064853 -1.508888 -179.203550 -21.720196 -4.940193 -9.078854 70.933208 6.110834 -1.842524 21.454558 0.003099 0.000015 -159.723455 -1.890704 170.898122 -15.231482 4.266317 6.468535 89.498168 -4.287410 1.624304 21.454555 -0.003085 -0.000001 9.128660 0.345760 1.638482 8.252906 0.573981 3.297443 7.935350 0.593734 3.293915 1.115503 -8.960377 -0.940267 -17.555377 -1.019429 -2.105236 -155.890093 -70.282080 -26.210861 12.209767 56.862824 42.725231 -26.291763 -15.054184 1.192144 7.903459 -3.435444 7.959936 163.246876 79.488744 -15.459334 -32.689996 -43.511631 -9.237518 -52.629650 17.438436 -2.000393 0.901344 5.703308 -32.384194 
